<mxfile host="app.diagrams.net" modified="2022-05-20T14:14:24.122Z" agent="5.0 (Macintosh; Intel Mac OS X 10_15_7) AppleWebKit/537.36 (KHTML, like Gecko) Chrome/101.0.4951.54 Safari/537.36" etag="SlxV1KjjBn3TBRgCj-vx" version="18.0.8" type="github">
  <diagram id="C5RBs43oDa-KdzZeNtuy" name="Page-1">
    <mxGraphModel dx="1294" dy="633" grid="1" gridSize="10" guides="1" tooltips="1" connect="1" arrows="1" fold="1" page="1" pageScale="1" pageWidth="827" pageHeight="1169" math="0" shadow="0">
      <root>
        <mxCell id="WIyWlLk6GJQsqaUBKTNV-0" />
        <mxCell id="WIyWlLk6GJQsqaUBKTNV-1" parent="WIyWlLk6GJQsqaUBKTNV-0" />
        <mxCell id="WIyWlLk6GJQsqaUBKTNV-3" value="Task runs (compliance-checks, unit-test, detect-secret)" style="rounded=1;whiteSpace=wrap;html=1;fontSize=12;glass=0;strokeWidth=1;shadow=0;" parent="WIyWlLk6GJQsqaUBKTNV-1" vertex="1">
          <mxGeometry x="20" y="170" width="150" height="60" as="geometry" />
        </mxCell>
        <mxCell id="WIyWlLk6GJQsqaUBKTNV-7" value="Collecting evidence" style="rounded=1;whiteSpace=wrap;html=1;fontSize=12;glass=0;strokeWidth=1;shadow=0;" parent="WIyWlLk6GJQsqaUBKTNV-1" vertex="1">
          <mxGeometry x="230" y="170" width="140" height="60" as="geometry" />
        </mxCell>
        <mxCell id="1XPnf-lQeU9jXNijlbFB-1" value="&lt;font style=&quot;font-size: 20px;&quot;&gt;CI pipeline&lt;/font&gt;" style="text;html=1;strokeColor=none;fillColor=none;align=center;verticalAlign=middle;whiteSpace=wrap;rounded=0;" vertex="1" parent="WIyWlLk6GJQsqaUBKTNV-1">
          <mxGeometry x="230" y="50" width="160" height="80" as="geometry" />
        </mxCell>
        <mxCell id="1XPnf-lQeU9jXNijlbFB-2" value="&lt;font style=&quot;font-size: 20px;&quot;&gt;CD pipeline&lt;/font&gt;" style="text;html=1;strokeColor=none;fillColor=none;align=center;verticalAlign=middle;whiteSpace=wrap;rounded=0;" vertex="1" parent="WIyWlLk6GJQsqaUBKTNV-1">
          <mxGeometry x="1310" y="50" width="160" height="80" as="geometry" />
        </mxCell>
        <mxCell id="1XPnf-lQeU9jXNijlbFB-3" value="&lt;font style=&quot;font-size: 20px;&quot;&gt;&lt;b&gt;ASYNC&lt;/b&gt;&lt;/font&gt;" style="text;html=1;strokeColor=none;fillColor=none;align=center;verticalAlign=middle;whiteSpace=wrap;rounded=0;" vertex="1" parent="WIyWlLk6GJQsqaUBKTNV-1">
          <mxGeometry x="680" y="470" width="160" height="80" as="geometry" />
        </mxCell>
        <mxCell id="1XPnf-lQeU9jXNijlbFB-5" value="Collecting Evidence" style="rounded=1;whiteSpace=wrap;html=1;fontSize=12;glass=0;strokeWidth=1;shadow=0;" vertex="1" parent="WIyWlLk6GJQsqaUBKTNV-1">
          <mxGeometry x="1020" y="160" width="130" height="60" as="geometry" />
        </mxCell>
        <mxCell id="1XPnf-lQeU9jXNijlbFB-15" value="Async scanners&amp;nbsp;" style="rhombus;whiteSpace=wrap;html=1;" vertex="1" parent="WIyWlLk6GJQsqaUBKTNV-1">
          <mxGeometry x="720" y="370" width="80" height="80" as="geometry" />
        </mxCell>
        <mxCell id="1XPnf-lQeU9jXNijlbFB-23" value="" style="endArrow=none;html=1;rounded=0;fontSize=20;exitX=1;exitY=0.5;exitDx=0;exitDy=0;" edge="1" parent="WIyWlLk6GJQsqaUBKTNV-1" source="1XPnf-lQeU9jXNijlbFB-15">
          <mxGeometry width="50" height="50" relative="1" as="geometry">
            <mxPoint x="650" y="430" as="sourcePoint" />
            <mxPoint x="1090" y="410" as="targetPoint" />
          </mxGeometry>
        </mxCell>
        <mxCell id="1XPnf-lQeU9jXNijlbFB-24" value="" style="endArrow=classic;html=1;rounded=0;fontSize=20;" edge="1" parent="WIyWlLk6GJQsqaUBKTNV-1">
          <mxGeometry width="50" height="50" relative="1" as="geometry">
            <mxPoint x="1090" y="410" as="sourcePoint" />
            <mxPoint x="1090" y="220" as="targetPoint" />
          </mxGeometry>
        </mxCell>
        <mxCell id="1XPnf-lQeU9jXNijlbFB-26" value="Publish to DOI" style="rounded=1;whiteSpace=wrap;html=1;fontSize=12;glass=0;strokeWidth=1;shadow=0;" vertex="1" parent="WIyWlLk6GJQsqaUBKTNV-1">
          <mxGeometry x="430" y="170" width="140" height="60" as="geometry" />
        </mxCell>
        <mxCell id="1XPnf-lQeU9jXNijlbFB-27" value="" style="endArrow=none;html=1;rounded=0;fontSize=20;" edge="1" parent="WIyWlLk6GJQsqaUBKTNV-1">
          <mxGeometry width="50" height="50" relative="1" as="geometry">
            <mxPoint x="100" y="410" as="sourcePoint" />
            <mxPoint x="100" y="230" as="targetPoint" />
          </mxGeometry>
        </mxCell>
        <mxCell id="1XPnf-lQeU9jXNijlbFB-28" value="" style="endArrow=classic;html=1;rounded=0;fontSize=20;entryX=0;entryY=0.5;entryDx=0;entryDy=0;" edge="1" parent="WIyWlLk6GJQsqaUBKTNV-1" target="1XPnf-lQeU9jXNijlbFB-15">
          <mxGeometry width="50" height="50" relative="1" as="geometry">
            <mxPoint x="100" y="410" as="sourcePoint" />
            <mxPoint x="730" y="360" as="targetPoint" />
          </mxGeometry>
        </mxCell>
        <mxCell id="1XPnf-lQeU9jXNijlbFB-30" value="&lt;span style=&quot;font-size: 11px;&quot;&gt;Trigger dynamic scan&lt;/span&gt;" style="text;html=1;strokeColor=none;fillColor=none;align=center;verticalAlign=middle;whiteSpace=wrap;rounded=0;fontSize=20;" vertex="1" parent="WIyWlLk6GJQsqaUBKTNV-1">
          <mxGeometry x="190" y="380" width="110" height="30" as="geometry" />
        </mxCell>
        <mxCell id="1XPnf-lQeU9jXNijlbFB-31" value="" style="endArrow=classic;html=1;rounded=0;fontSize=11;exitX=1;exitY=0.5;exitDx=0;exitDy=0;entryX=0;entryY=0.5;entryDx=0;entryDy=0;" edge="1" parent="WIyWlLk6GJQsqaUBKTNV-1" source="WIyWlLk6GJQsqaUBKTNV-3" target="WIyWlLk6GJQsqaUBKTNV-7">
          <mxGeometry width="50" height="50" relative="1" as="geometry">
            <mxPoint x="540" y="450" as="sourcePoint" />
            <mxPoint x="590" y="400" as="targetPoint" />
          </mxGeometry>
        </mxCell>
        <mxCell id="1XPnf-lQeU9jXNijlbFB-32" value="" style="endArrow=classic;html=1;rounded=0;fontSize=11;exitX=1;exitY=0.5;exitDx=0;exitDy=0;entryX=0;entryY=0.5;entryDx=0;entryDy=0;" edge="1" parent="WIyWlLk6GJQsqaUBKTNV-1" source="WIyWlLk6GJQsqaUBKTNV-7" target="1XPnf-lQeU9jXNijlbFB-26">
          <mxGeometry width="50" height="50" relative="1" as="geometry">
            <mxPoint x="540" y="450" as="sourcePoint" />
            <mxPoint x="590" y="400" as="targetPoint" />
          </mxGeometry>
        </mxCell>
        <mxCell id="1XPnf-lQeU9jXNijlbFB-34" value="Evidence summarize" style="rounded=1;whiteSpace=wrap;html=1;fontSize=12;glass=0;strokeWidth=1;shadow=0;" vertex="1" parent="WIyWlLk6GJQsqaUBKTNV-1">
          <mxGeometry x="1230" y="160" width="130" height="60" as="geometry" />
        </mxCell>
        <mxCell id="1XPnf-lQeU9jXNijlbFB-35" value="" style="endArrow=classic;html=1;rounded=0;fontSize=11;entryX=0;entryY=0.5;entryDx=0;entryDy=0;exitX=1;exitY=0.5;exitDx=0;exitDy=0;" edge="1" parent="WIyWlLk6GJQsqaUBKTNV-1" source="1XPnf-lQeU9jXNijlbFB-5" target="1XPnf-lQeU9jXNijlbFB-34">
          <mxGeometry width="50" height="50" relative="1" as="geometry">
            <mxPoint x="730" y="450" as="sourcePoint" />
            <mxPoint x="780" y="400" as="targetPoint" />
          </mxGeometry>
        </mxCell>
        <mxCell id="1XPnf-lQeU9jXNijlbFB-36" value="" style="endArrow=classic;html=1;rounded=0;fontSize=11;exitX=1;exitY=0.5;exitDx=0;exitDy=0;entryX=0;entryY=0.5;entryDx=0;entryDy=0;" edge="1" parent="WIyWlLk6GJQsqaUBKTNV-1" source="1XPnf-lQeU9jXNijlbFB-34" target="1XPnf-lQeU9jXNijlbFB-38">
          <mxGeometry width="50" height="50" relative="1" as="geometry">
            <mxPoint x="1370" y="240" as="sourcePoint" />
            <mxPoint x="1420" y="190" as="targetPoint" />
          </mxGeometry>
        </mxCell>
        <mxCell id="1XPnf-lQeU9jXNijlbFB-37" value="Change Request" style="rounded=1;whiteSpace=wrap;html=1;fontSize=12;glass=0;strokeWidth=1;shadow=0;" vertex="1" parent="WIyWlLk6GJQsqaUBKTNV-1">
          <mxGeometry x="1630" y="160" width="130" height="60" as="geometry" />
        </mxCell>
        <mxCell id="1XPnf-lQeU9jXNijlbFB-38" value="DOI gate evaluation" style="rounded=1;whiteSpace=wrap;html=1;fontSize=12;glass=0;strokeWidth=1;shadow=0;" vertex="1" parent="WIyWlLk6GJQsqaUBKTNV-1">
          <mxGeometry x="1430" y="160" width="130" height="60" as="geometry" />
        </mxCell>
        <mxCell id="1XPnf-lQeU9jXNijlbFB-39" value="" style="endArrow=classic;html=1;rounded=0;fontSize=11;entryX=0;entryY=0.5;entryDx=0;entryDy=0;exitX=1;exitY=0.5;exitDx=0;exitDy=0;" edge="1" parent="WIyWlLk6GJQsqaUBKTNV-1" source="1XPnf-lQeU9jXNijlbFB-38" target="1XPnf-lQeU9jXNijlbFB-37">
          <mxGeometry width="50" height="50" relative="1" as="geometry">
            <mxPoint x="1150" y="470" as="sourcePoint" />
            <mxPoint x="1200" y="420" as="targetPoint" />
          </mxGeometry>
        </mxCell>
        <mxCell id="1XPnf-lQeU9jXNijlbFB-40" value="&lt;font style=&quot;font-size: 25px;&quot;&gt;Expectation:&lt;/font&gt;" style="text;html=1;strokeColor=none;fillColor=none;align=center;verticalAlign=middle;whiteSpace=wrap;rounded=0;fontSize=11;" vertex="1" parent="WIyWlLk6GJQsqaUBKTNV-1">
          <mxGeometry x="15" y="20" width="160" height="50" as="geometry" />
        </mxCell>
        <mxCell id="1XPnf-lQeU9jXNijlbFB-41" value="&lt;font style=&quot;font-size: 25px;&quot;&gt;Reality:&lt;/font&gt;" style="text;html=1;strokeColor=none;fillColor=none;align=center;verticalAlign=middle;whiteSpace=wrap;rounded=0;fontSize=11;" vertex="1" parent="WIyWlLk6GJQsqaUBKTNV-1">
          <mxGeometry x="10" y="770" width="160" height="50" as="geometry" />
        </mxCell>
        <mxCell id="1XPnf-lQeU9jXNijlbFB-42" value="Task runs (compliance-checks, unit-test, detect-secret)" style="rounded=1;whiteSpace=wrap;html=1;fontSize=12;glass=0;strokeWidth=1;shadow=0;" vertex="1" parent="WIyWlLk6GJQsqaUBKTNV-1">
          <mxGeometry x="20" y="780" width="150" height="60" as="geometry" />
        </mxCell>
        <mxCell id="1XPnf-lQeU9jXNijlbFB-43" value="Collecting evidence" style="rounded=1;whiteSpace=wrap;html=1;fontSize=12;glass=0;strokeWidth=1;shadow=0;" vertex="1" parent="WIyWlLk6GJQsqaUBKTNV-1">
          <mxGeometry x="230" y="780" width="140" height="60" as="geometry" />
        </mxCell>
        <mxCell id="1XPnf-lQeU9jXNijlbFB-44" value="&lt;font style=&quot;font-size: 20px;&quot;&gt;CI pipeline&lt;/font&gt;" style="text;html=1;strokeColor=none;fillColor=none;align=center;verticalAlign=middle;whiteSpace=wrap;rounded=0;" vertex="1" parent="WIyWlLk6GJQsqaUBKTNV-1">
          <mxGeometry x="230" y="660" width="160" height="80" as="geometry" />
        </mxCell>
        <mxCell id="1XPnf-lQeU9jXNijlbFB-45" value="&lt;font style=&quot;font-size: 20px;&quot;&gt;CD pipeline&lt;/font&gt;" style="text;html=1;strokeColor=none;fillColor=none;align=center;verticalAlign=middle;whiteSpace=wrap;rounded=0;" vertex="1" parent="WIyWlLk6GJQsqaUBKTNV-1">
          <mxGeometry x="1180" y="660" width="160" height="80" as="geometry" />
        </mxCell>
        <mxCell id="1XPnf-lQeU9jXNijlbFB-46" value="&lt;font style=&quot;font-size: 20px;&quot;&gt;&lt;b&gt;ASYNC&lt;/b&gt;&lt;/font&gt;" style="text;html=1;strokeColor=none;fillColor=none;align=center;verticalAlign=middle;whiteSpace=wrap;rounded=0;" vertex="1" parent="WIyWlLk6GJQsqaUBKTNV-1">
          <mxGeometry x="680" y="1080" width="160" height="80" as="geometry" />
        </mxCell>
        <mxCell id="1XPnf-lQeU9jXNijlbFB-47" value="Collecting Evidence" style="rounded=1;whiteSpace=wrap;html=1;fontSize=12;glass=0;strokeWidth=1;shadow=0;" vertex="1" parent="WIyWlLk6GJQsqaUBKTNV-1">
          <mxGeometry x="1140" y="770" width="130" height="60" as="geometry" />
        </mxCell>
        <mxCell id="1XPnf-lQeU9jXNijlbFB-48" value="Async scanners&amp;nbsp;" style="rhombus;whiteSpace=wrap;html=1;" vertex="1" parent="WIyWlLk6GJQsqaUBKTNV-1">
          <mxGeometry x="720" y="980" width="80" height="80" as="geometry" />
        </mxCell>
        <mxCell id="1XPnf-lQeU9jXNijlbFB-49" value="" style="endArrow=none;html=1;rounded=0;fontSize=20;exitX=1;exitY=0.5;exitDx=0;exitDy=0;" edge="1" parent="WIyWlLk6GJQsqaUBKTNV-1" source="1XPnf-lQeU9jXNijlbFB-48">
          <mxGeometry width="50" height="50" relative="1" as="geometry">
            <mxPoint x="650" y="1040" as="sourcePoint" />
            <mxPoint x="1210" y="1020" as="targetPoint" />
          </mxGeometry>
        </mxCell>
        <mxCell id="1XPnf-lQeU9jXNijlbFB-50" value="" style="endArrow=classic;html=1;rounded=0;fontSize=20;" edge="1" parent="WIyWlLk6GJQsqaUBKTNV-1">
          <mxGeometry width="50" height="50" relative="1" as="geometry">
            <mxPoint x="1210" y="1020" as="sourcePoint" />
            <mxPoint x="1210" y="830" as="targetPoint" />
          </mxGeometry>
        </mxCell>
        <mxCell id="1XPnf-lQeU9jXNijlbFB-51" value="Publish to DOI" style="rounded=1;whiteSpace=wrap;html=1;fontSize=12;glass=0;strokeWidth=1;shadow=0;" vertex="1" parent="WIyWlLk6GJQsqaUBKTNV-1">
          <mxGeometry x="430" y="780" width="140" height="60" as="geometry" />
        </mxCell>
        <mxCell id="1XPnf-lQeU9jXNijlbFB-52" value="" style="endArrow=none;html=1;rounded=0;fontSize=20;" edge="1" parent="WIyWlLk6GJQsqaUBKTNV-1">
          <mxGeometry width="50" height="50" relative="1" as="geometry">
            <mxPoint x="100.00000000000023" y="1020" as="sourcePoint" />
            <mxPoint x="100.00000000000023" y="840" as="targetPoint" />
          </mxGeometry>
        </mxCell>
        <mxCell id="1XPnf-lQeU9jXNijlbFB-53" value="" style="endArrow=classic;html=1;rounded=0;fontSize=20;entryX=0;entryY=0.5;entryDx=0;entryDy=0;" edge="1" parent="WIyWlLk6GJQsqaUBKTNV-1" target="1XPnf-lQeU9jXNijlbFB-48">
          <mxGeometry width="50" height="50" relative="1" as="geometry">
            <mxPoint x="100.00000000000023" y="1020" as="sourcePoint" />
            <mxPoint x="730" y="970" as="targetPoint" />
          </mxGeometry>
        </mxCell>
        <mxCell id="1XPnf-lQeU9jXNijlbFB-54" value="&lt;span style=&quot;font-size: 11px;&quot;&gt;Trigger dynamic scan&lt;/span&gt;" style="text;html=1;strokeColor=none;fillColor=none;align=center;verticalAlign=middle;whiteSpace=wrap;rounded=0;fontSize=20;" vertex="1" parent="WIyWlLk6GJQsqaUBKTNV-1">
          <mxGeometry x="190" y="980" width="110" height="30" as="geometry" />
        </mxCell>
        <mxCell id="1XPnf-lQeU9jXNijlbFB-55" value="" style="endArrow=classic;html=1;rounded=0;fontSize=11;exitX=1;exitY=0.5;exitDx=0;exitDy=0;entryX=0;entryY=0.5;entryDx=0;entryDy=0;" edge="1" parent="WIyWlLk6GJQsqaUBKTNV-1" source="1XPnf-lQeU9jXNijlbFB-42" target="1XPnf-lQeU9jXNijlbFB-43">
          <mxGeometry width="50" height="50" relative="1" as="geometry">
            <mxPoint x="540" y="1060" as="sourcePoint" />
            <mxPoint x="590" y="1010" as="targetPoint" />
          </mxGeometry>
        </mxCell>
        <mxCell id="1XPnf-lQeU9jXNijlbFB-56" value="" style="endArrow=classic;html=1;rounded=0;fontSize=11;exitX=1;exitY=0.5;exitDx=0;exitDy=0;entryX=0;entryY=0.5;entryDx=0;entryDy=0;" edge="1" parent="WIyWlLk6GJQsqaUBKTNV-1" source="1XPnf-lQeU9jXNijlbFB-43" target="1XPnf-lQeU9jXNijlbFB-51">
          <mxGeometry width="50" height="50" relative="1" as="geometry">
            <mxPoint x="540" y="1060" as="sourcePoint" />
            <mxPoint x="590" y="1010" as="targetPoint" />
          </mxGeometry>
        </mxCell>
        <mxCell id="1XPnf-lQeU9jXNijlbFB-57" value="Evidence summarize" style="rounded=1;whiteSpace=wrap;html=1;fontSize=12;glass=0;strokeWidth=1;shadow=0;" vertex="1" parent="WIyWlLk6GJQsqaUBKTNV-1">
          <mxGeometry x="1350" y="770" width="130" height="60" as="geometry" />
        </mxCell>
        <mxCell id="1XPnf-lQeU9jXNijlbFB-58" value="" style="endArrow=classic;html=1;rounded=0;fontSize=11;entryX=0;entryY=0.5;entryDx=0;entryDy=0;exitX=1;exitY=0.5;exitDx=0;exitDy=0;" edge="1" parent="WIyWlLk6GJQsqaUBKTNV-1" source="1XPnf-lQeU9jXNijlbFB-47" target="1XPnf-lQeU9jXNijlbFB-57">
          <mxGeometry width="50" height="50" relative="1" as="geometry">
            <mxPoint x="850" y="1060" as="sourcePoint" />
            <mxPoint x="900" y="1010" as="targetPoint" />
          </mxGeometry>
        </mxCell>
        <mxCell id="1XPnf-lQeU9jXNijlbFB-60" value="Change Request" style="rounded=1;whiteSpace=wrap;html=1;fontSize=12;glass=0;strokeWidth=1;shadow=0;" vertex="1" parent="WIyWlLk6GJQsqaUBKTNV-1">
          <mxGeometry x="1560" y="770" width="130" height="60" as="geometry" />
        </mxCell>
        <mxCell id="1XPnf-lQeU9jXNijlbFB-63" value="&lt;font style=&quot;font-size: 25px;&quot;&gt;Reality:&lt;/font&gt;" style="text;html=1;strokeColor=none;fillColor=none;align=center;verticalAlign=middle;whiteSpace=wrap;rounded=0;fontSize=11;" vertex="1" parent="WIyWlLk6GJQsqaUBKTNV-1">
          <mxGeometry y="640" width="160" height="50" as="geometry" />
        </mxCell>
        <mxCell id="1XPnf-lQeU9jXNijlbFB-64" value="DOI policy evaluation" style="rounded=1;whiteSpace=wrap;html=1;fontSize=12;glass=0;strokeWidth=1;shadow=0;" vertex="1" parent="WIyWlLk6GJQsqaUBKTNV-1">
          <mxGeometry x="830" y="780" width="130" height="65" as="geometry" />
        </mxCell>
        <mxCell id="1XPnf-lQeU9jXNijlbFB-67" value="" style="endArrow=classic;html=1;rounded=0;fontSize=25;exitX=1;exitY=0.5;exitDx=0;exitDy=0;entryX=0;entryY=0.5;entryDx=0;entryDy=0;" edge="1" parent="WIyWlLk6GJQsqaUBKTNV-1" source="1XPnf-lQeU9jXNijlbFB-51" target="1XPnf-lQeU9jXNijlbFB-75">
          <mxGeometry width="50" height="50" relative="1" as="geometry">
            <mxPoint x="840" y="710" as="sourcePoint" />
            <mxPoint x="650" y="810" as="targetPoint" />
          </mxGeometry>
        </mxCell>
        <mxCell id="1XPnf-lQeU9jXNijlbFB-68" value="Create Required Evidence Policy in DOI" style="rounded=1;whiteSpace=wrap;html=1;fontSize=12;glass=0;strokeWidth=1;shadow=0;" vertex="1" parent="WIyWlLk6GJQsqaUBKTNV-1">
          <mxGeometry x="630" y="170" width="140" height="60" as="geometry" />
        </mxCell>
        <mxCell id="1XPnf-lQeU9jXNijlbFB-69" value="" style="endArrow=classic;html=1;rounded=0;fontSize=25;exitX=1;exitY=0.5;exitDx=0;exitDy=0;entryX=0;entryY=0.5;entryDx=0;entryDy=0;" edge="1" parent="WIyWlLk6GJQsqaUBKTNV-1" source="1XPnf-lQeU9jXNijlbFB-26" target="1XPnf-lQeU9jXNijlbFB-68">
          <mxGeometry width="50" height="50" relative="1" as="geometry">
            <mxPoint x="660" y="320" as="sourcePoint" />
            <mxPoint x="710" y="270" as="targetPoint" />
          </mxGeometry>
        </mxCell>
        <mxCell id="1XPnf-lQeU9jXNijlbFB-70" value="" style="endArrow=classic;html=1;rounded=0;fontSize=11;exitX=1;exitY=0.5;exitDx=0;exitDy=0;" edge="1" parent="WIyWlLk6GJQsqaUBKTNV-1" source="1XPnf-lQeU9jXNijlbFB-57">
          <mxGeometry width="50" height="50" relative="1" as="geometry">
            <mxPoint x="1500" y="800" as="sourcePoint" />
            <mxPoint x="1570" y="800" as="targetPoint" />
          </mxGeometry>
        </mxCell>
        <mxCell id="1XPnf-lQeU9jXNijlbFB-71" value="&lt;font style=&quot;font-size: 20px;&quot;&gt;Questions/Problems:&lt;/font&gt;" style="text;html=1;strokeColor=none;fillColor=none;align=center;verticalAlign=middle;whiteSpace=wrap;rounded=0;fontSize=25;" vertex="1" parent="WIyWlLk6GJQsqaUBKTNV-1">
          <mxGeometry x="2073" y="760" width="60" height="30" as="geometry" />
        </mxCell>
        <mxCell id="1XPnf-lQeU9jXNijlbFB-73" value="&lt;ul&gt;&lt;li&gt;&lt;span style=&quot;background-color: initial;&quot;&gt;Initialization of Policy&amp;nbsp;&amp;nbsp;&lt;/span&gt;&lt;br&gt;&lt;/li&gt;&lt;li&gt;Predefined policies for 1PL evidence types&lt;/li&gt;&lt;li&gt;Handling Async pipelines&lt;/li&gt;&lt;li&gt;How to report the Required Evidence result?&lt;/li&gt;&lt;li&gt;Multiple CI in DOI&amp;nbsp;&lt;/li&gt;&lt;/ul&gt;" style="text;strokeColor=none;fillColor=none;html=1;whiteSpace=wrap;verticalAlign=middle;overflow=hidden;fontSize=15;spacingTop=0;spacing=0;spacingBottom=0;perimeterSpacing=0;rotation=0;" vertex="1" parent="WIyWlLk6GJQsqaUBKTNV-1">
          <mxGeometry x="1990" y="810" width="360" height="140" as="geometry" />
        </mxCell>
        <mxCell id="1XPnf-lQeU9jXNijlbFB-75" value="Create Required Evidence Policy in DOI" style="rounded=1;whiteSpace=wrap;html=1;fontSize=12;glass=0;strokeWidth=1;shadow=0;" vertex="1" parent="WIyWlLk6GJQsqaUBKTNV-1">
          <mxGeometry x="640" y="780" width="140" height="60" as="geometry" />
        </mxCell>
        <mxCell id="1XPnf-lQeU9jXNijlbFB-76" value="" style="endArrow=classic;html=1;rounded=0;fontSize=25;exitX=1;exitY=0.5;exitDx=0;exitDy=0;" edge="1" parent="WIyWlLk6GJQsqaUBKTNV-1">
          <mxGeometry width="50" height="50" relative="1" as="geometry">
            <mxPoint x="780" y="810.0900000000003" as="sourcePoint" />
            <mxPoint x="830" y="809.7" as="targetPoint" />
            <Array as="points">
              <mxPoint x="813" y="810" />
            </Array>
          </mxGeometry>
        </mxCell>
      </root>
    </mxGraphModel>
  </diagram>
</mxfile>
